<?xml version="1.0" encoding="UTF-8" standalone="no"?>
<!-- Created with Inkscape (http://www.inkscape.org/) -->

<svg
   xmlns:dc="http://purl.org/dc/elements/1.1/"
   xmlns:cc="http://creativecommons.org/ns#"
   xmlns:rdf="http://www.w3.org/1999/02/22-rdf-syntax-ns#"
   xmlns:svg="http://www.w3.org/2000/svg"
   xmlns="http://www.w3.org/2000/svg"
   xmlns:sodipodi="http://sodipodi.sourceforge.net/DTD/sodipodi-0.dtd"
   xmlns:inkscape="http://www.inkscape.org/namespaces/inkscape"
   width="100"
   height="100"
   id="svg2"
   version="1.1"
   inkscape:version="0.91pre2 r13516"
   viewBox="0 0 100 100"
   sodipodi:docname="vanillin.svg">
  <defs
     id="defs4" />
  <sodipodi:namedview
     id="base"
     pagecolor="#ffffff"
     bordercolor="#666666"
     borderopacity="1.0"
     inkscape:pageopacity="0.0"
     inkscape:pageshadow="2"
     inkscape:zoom="5.6568542"
     inkscape:cx="44.418257"
     inkscape:cy="42.509741"
     inkscape:document-units="px"
     inkscape:current-layer="layer1"
     showgrid="false"
     inkscape:window-width="1680"
     inkscape:window-height="997"
     inkscape:window-x="-8"
     inkscape:window-y="-8"
     inkscape:window-maximized="1" />
  <metadata
     id="metadata7">
    <rdf:RDF>
      <cc:Work
         rdf:about="">
        <dc:format>image/svg+xml</dc:format>
        <dc:type
           rdf:resource="http://purl.org/dc/dcmitype/StillImage" />
        <dc:title></dc:title>
      </cc:Work>
    </rdf:RDF>
  </metadata>
  <g
     inkscape:label="Layer 1"
     inkscape:groupmode="layer"
     id="layer1"
     transform="translate(0,-952.3622)">
    <g
       id="g3350"
       transform="translate(-0.89736253,0.45020303)">
      <path
         style="fill:#fef7cc"
         d="m 60.268084,1043.493 c -3.02423,-0.7984 -5.142514,-2.8236 -8.29167,-7.927 -0.372028,-0.6029 -1.521128,-2.2229 -2.553554,-3.6 -1.032428,-1.3771 -2.096526,-2.9763 -2.364662,-3.5538 -0.268136,-0.5775 -0.581994,-1.05 -0.697462,-1.05 -0.115466,0 -0.780948,0.4074 -1.478846,0.9055 -0.697898,0.498 -3.274326,1.8786 -5.725398,3.0681 -2.45107,1.1894 -5.086492,2.5944 -5.856492,3.1221 -0.77,0.5278 -2.345,1.6103 -3.5,2.4057 -2.727812,1.8784 -3.340678,2.1752 -5.756822,2.7876 -2.455148,0.6224 -2.672872,0.6237 -4.98266,0.031 -2.246505,-0.5768 -3.95667,-1.7335 -5.310415,-3.5919 -1.171468,-1.6081 -1.216456,-1.7084 -1.751173,-3.9046 -0.39077,-1.605 -0.438659,-2.1844 -0.330564,-4 0.126595,-2.1263 0.99056,-5.9834 1.607441,-7.1763 0.444243,-0.8591 2.918949,-4.0021 4.141904,-5.2604 0.595259,-0.6125 1.771932,-1.8275 2.614829,-2.7 1.4275,-1.4777 2.004902,-2.0361 5.337656,-5.1617 0.689246,-0.6464 1.210076,-1.2877 1.157396,-1.4249 -0.05268,-0.1373 -0.530436,-0.3113 -1.061686,-0.3867 -1.700778,-0.2415 -5.469018,-1.2906 -7.142928,-1.9888 -0.892638,-0.3723 -2.162978,-0.8827 -2.822978,-1.1342 -2.143963,-0.817 -5.1603,-2.397 -6.567387,-3.44008 C 7.5446496,998.48328 5.675892,996.232 5.2386896,995.06218 4.7985326,993.88445 4.2,991.18157 4.2,990.37162 c 0,-0.45315 0.1936906,-1.60816 0.4304236,-2.56668 0.5380056,-2.17835 1.674925,-3.843 3.5695764,-5.22648 2.107043,-1.53857 2.564045,-1.74125 5.450528,-2.41722 2.937773,-0.68799 3.248854,-0.6971 7.349472,-0.21537 2.298462,0.27003 5.82841,1.09352 7.370542,1.71947 0.621202,0.25214 2.371172,0.7877 3.88882,1.19013 2.387514,0.63308 3.007406,0.88773 4.6,1.88968 2.38977,1.50346 3.152948,1.88875 3.335764,1.68405 0.08204,-0.0919 0.38111,-1.06702 0.664602,-2.16702 0.581704,-2.25713 2.400482,-7.73974 2.819754,-8.5 0.151658,-0.275 0.666284,-1.445 1.143614,-2.6 1.551742,-3.75477 4.712656,-8.97523 6.306444,-10.41552 1.478532,-1.33613 2.58598,-1.93109 4.432346,-2.38121 l 1.861886,-0.45391 2.338114,0.54953 c 2.908098,0.68349 4.081806,1.44929 5.755832,3.75548 1.013046,1.3956 1.189066,1.79395 1.723282,3.9 l 0.594992,2.34563 -0.22666,4.90937 c -0.124662,2.70015 -0.354404,5.71515 -0.510538,6.7 -0.35412,2.23368 -0.808964,4.71182 -1.081182,5.89063 -0.114308,0.495 -0.210034,1.10856 -0.212722,1.36348 -0.0041,0.38796 0.06843,0.44152 0.44511,0.32871 0.734766,-0.22005 4.785206,-1.83741 5.65,-2.25607 3.700108,-1.79128 9.38975,-3.6429 12.652718,-4.11765 1.18928,-0.17304 4.451144,0.67928 5.965436,1.55875 3.403244,1.97654 4.097492,2.5423 5.345672,4.35631 0.863184,1.25448 1.72628,4.17975 1.73089,5.86647 0.0036,1.30821 -1.065768,5.35292 -1.62981,6.16462 -1.424126,2.0494 -2.398186,3.11 -3.833968,4.1746 -1.911838,1.4175 -3.055886,2.0212 -5.10847,2.6957 -2.025876,0.6657 -11.253978,2.8942 -14.815922,3.5778 -1.920766,0.3687 -2.87774,0.6401 -2.953524,0.8376 -0.06166,0.1607 0.08382,0.6954 0.323288,1.1883 0.661956,1.3625 1.771976,4.8417 2.540056,7.9614 1.244918,5.0565 1.366308,9.4197 0.375576,13.4997 -0.73328,3.0199 -1.011762,3.7373 -1.940304,4.9986 -1.282576,1.7422 -2.81315,2.7567 -5.010154,3.3208 -2.226934,0.5718 -3.144326,0.5739 -5.2734,0.012 z"
         id="path3354"
         inkscape:connector-curvature="0" />
      <path
         style="fill:#febdbd"
         d="m 61.22334,1034.8122 c -0.586132,-0.6325 -1.229058,-1.47 -1.428724,-1.8611 -0.199666,-0.3911 -0.820136,-1.3746 -1.378822,-2.1856 -0.558686,-0.811 -1.015794,-1.5563 -1.015794,-1.6563 0,-0.1 -0.59596,-0.8715 -1.324358,-1.7144 -1.325184,-1.5336 -2.270016,-3.1719 -2.273688,-3.9426 -0.001,-0.2255 -0.09013,-0.4982 -0.197898,-0.606 -0.175218,-0.1752 -0.37323,-1.764 -0.739044,-5.9301 -0.10029,-1.1421 -0.06759,-1.3655 0.215844,-1.4742 0.561914,-0.2157 1.118538,0.4783 1.123916,1.4013 0.0026,0.4504 0.092,1.179 0.198604,1.619 0.106608,0.44 0.282022,1.61 0.38981,2.6 0.329418,3.0256 0.644254,3.7771 2.301872,5.4945 1.522938,1.5778 1.904942,2.1308 1.904942,2.7575 0,0.208 0.233758,0.5964 0.519464,0.8631 0.285704,0.2667 0.700116,0.8449 0.920916,1.2849 0.444632,0.886 1.91264,2.5 2.273932,2.5 0.687674,0 1.06655,-6.8346 0.498916,-9 -0.12976,-0.495 -0.268644,-1.1963 -0.308632,-1.5583 -0.107626,-0.9744 -1.253434,-4.6403 -1.934748,-6.19 -0.326852,-0.7435 -0.740724,-1.7117 -0.919716,-2.1517 -0.178994,-0.44 -0.833664,-1.79 -1.454824,-3 -1.146148,-2.2327 -1.249914,-2.7 -0.59949,-2.7 1.209146,0 5.781938,10.3658 6.676718,15.1351 0.684352,3.6477 0.606576,7.6249 -0.197156,10.0822 -0.34924,1.0677 -0.717726,1.3827 -1.617716,1.3827 -0.435356,0 -0.81841,-0.2696 -1.634324,-1.15 z M 20.643358,1031.85 c -0.898885,-0.6296 -1.109469,-1.3965 -0.969575,-3.5312 0.226313,-3.4534 0.407583,-3.7386 6.136323,-9.6566 3.23677,-3.3437 8.13145,-7.713 10.703652,-9.5548 1.5546,-1.1131 4.287674,-2.7452 4.597112,-2.7452 0.384574,0 0.59343,0.9333 0.290528,1.2983 -0.133798,0.1612 -0.886348,0.7141 -1.672334,1.2286 -2.479446,1.623 -5.362534,3.8508 -7.329064,5.6632 -1.045,0.9631 -2.44,2.1995 -3.1,2.7476 -1.068126,0.8869 -3.9606,3.8934 -6.808958,7.0772 -1.063564,1.1888 -1.356014,1.9816 -1.582514,4.2902 -0.08485,0.8649 -0.04043,1.3116 0.157342,1.582 0.268208,0.3668 0.30178,0.3645 1.254856,-0.087 0.5386,-0.2554 1.609274,-0.9277 2.379274,-1.4942 0.77,-0.5664 1.894696,-1.3297 2.499326,-1.6962 0.60463,-0.3665 1.50463,-0.9765 2,-1.3556 0.49537,-0.379 2.205674,-1.3153 3.800674,-2.0804 5.632888,-2.7024 6.499614,-3.2149 8.104704,-4.7926 1.390148,-1.3664 1.99968,-1.6626 2.223142,-1.0803 0.235016,0.6125 -0.173942,1.3491 -1.49627,2.6953 -1.281316,1.3044 -1.601166,1.4999 -5.71302,3.493 -2.395642,1.1612 -4.391714,2.1113 -4.435712,2.1113 -0.108962,0 -5.36329,3.5509 -6.482844,4.3811 -1.090068,0.8084 -3.148122,1.8185 -3.705498,1.8187 -0.223026,10e-5 -0.60604,-0.1403 -0.851144,-0.312 z m 26.547638,-16.6251 c -1.49329,-0.3809 -2.348488,-0.9978 -3.290996,-2.3743 l -0.8,-1.1683 0.0165,-2.21 c 0.01816,-2.4335 0.143538,-2.8233 1.3634,-4.2383 1.213312,-1.4075 2.87217,-2.0444 4.635852,-1.7799 0.920708,0.1381 1.800042,0.7589 1.57974,1.1154 -0.0655,0.106 -0.811288,0.1955 -1.657296,0.1989 -1.702994,0.01 -2.541658,0.367 -3.479424,1.4938 -0.839358,1.0085 -0.989114,1.4682 -1.0976,3.3689 -0.103472,1.8128 -0.09819,1.8397 0.530992,2.6984 0.854964,1.1669 2.102566,1.7247 3.45607,1.5452 1.232306,-0.1635 2.453648,-0.6266 3.29908,-1.2508 1.005804,-0.7427 1.126582,-1.1101 0.848806,-2.5823 -0.296722,-1.5725 -1.067904,-2.3757 -2.485224,-2.5882 -1.246352,-0.1869 -1.525034,-0.043 -1.462428,0.753 0.07296,0.9281 -0.60298,1.0053 -1.321912,0.1509 -0.741894,-0.8817 -0.686436,-1.4637 0.191168,-2.0061 0.61656,-0.381 0.897668,-0.4267 1.994362,-0.3243 1.484788,0.1386 2.175958,0.4539 3.259578,1.487 0.90558,0.8633 1.428336,2.316 1.428336,3.9692 0,0.8378 -0.104674,1.1728 -0.52108,1.6677 -0.779748,0.9266 -2.16943,1.652 -3.873638,2.0218 -1.340724,0.291 -1.654044,0.2972 -2.614286,0.052 z m 12.310842,-9.4488 c -1.151416,-0.094 -1.410618,-0.1794 -1.468756,-0.4852 -0.118256,-0.6219 0.29356,-0.8046 2.117622,-0.9396 0.962112,-0.071 2.334296,-0.2713 3.049296,-0.4446 1.194362,-0.2895 3.293866,-0.7345 6.9,-1.4626 3.580188,-0.7229 4.494778,-0.9242 5.8,-1.277 0.77,-0.2081 2.48,-0.6189 3.8,-0.9127 1.32,-0.29391 3.297718,-0.90738 4.39493,-1.36329 1.617114,-0.67194 2.21607,-1.04512 3.16258,-1.97043 1.052626,-1.02904 1.161486,-1.21285 1.10507,-1.86591 -0.05606,-0.64893 -0.177218,-0.78737 -1.16258,-1.3284 -0.605,-0.33218 -1.213754,-0.69708 -1.352788,-0.81088 -0.141322,-0.11568 -0.628272,-0.15545 -1.104326,-0.0902 -1.06399,0.14584 -4.982082,1.48163 -6.842886,2.33294 -0.77,0.35227 -1.625,0.73323 -1.9,0.84658 -0.275,0.11336 -0.725,0.31587 -1,0.45003 -0.275,0.13417 -1.085,0.45286 -1.8,0.70822 -0.715,0.25535 -1.39,0.5277 -1.5,0.60523 -0.11,0.0775 -0.67957,0.29745 -1.265712,0.48872 -0.586142,0.19126 -1.847214,0.73608 -2.802382,1.2107 -0.955168,0.47462 -1.983948,0.92499 -2.286178,1.00089 -0.302228,0.076 -0.598968,0.2179 -0.659422,0.3157 -0.06045,0.098 -0.262102,0.1803 -0.44811,0.1833 -0.186008,0 -1.373196,0.4604 -2.638196,1.0163 -2.293516,1.008 -6.807822,2.5746 -7.425512,2.577 -0.17903,6e-4 -0.43755,-0.1337 -0.574488,-0.2987 -0.343438,-0.4138 -0.0012,-0.7904 1.06239,-1.1691 1.713648,-0.6102 5.473716,-2.0955 6.53761,-2.5825 0.605,-0.2769 1.685,-0.7087 2.4,-0.95944 0.715,-0.25074 2.156512,-0.87692 3.20336,-1.39153 1.04685,-0.5146 2.26185,-1.04973 2.7,-1.18917 0.974302,-0.31006 5.20889,-1.96049 5.66593,-2.20829 0.906534,-0.49152 3.497878,-1.58648 4.83071,-2.0412 4.428184,-1.51076 5.401336,-1.66207 6.369126,-0.9903 0.29198,0.20268 0.987228,0.61319 1.544992,0.91226 1.136702,0.60949 1.685882,1.36749 1.685882,2.3269 0,3.06919 -2.899174,5.26327 -8.8,6.65977 -0.715,0.1692 -2.11,0.5017 -3.1,0.7389 -0.99,0.2372 -3.42,0.777 -5.4,1.1995 -1.98,0.4225 -4.275,0.9165 -5.1,1.0978 -0.825,0.1812 -1.905,0.4057 -2.4,0.4988 -0.495,0.093 -1.26,0.2562 -1.7,0.3624 -1.297014,0.3132 -2.115986,0.3699 -3.598162,0.2491 z M 42.7,1002.4784 c -0.44,-0.1413 -1.34587,-0.5377 -2.013044,-0.8807 -1.736538,-0.8928 -9.262184,-2.84857 -12.086956,-3.14117 -2.917344,-0.30218 -4.44141,-0.6497 -6.1,-1.39091 -0.55,-0.24579 -1.585,-0.64999 -2.3,-0.89821 -2.488306,-0.86384 -6.052959,-2.61662 -6.866381,-3.37628 -1.096231,-1.02378 -1.438661,-2.59196 -0.753778,-3.45198 0.716686,-0.89995 3.087112,-1.7809 4.773029,-1.77385 0.410922,0.002 1.271492,0.1265 1.912379,0.27729 0.640887,0.15079 1.337043,0.22924 1.547011,0.17433 0.20997,-0.0549 0.540608,-0.029 0.734752,0.0575 0.194144,0.0865 0.730124,0.18211 1.191068,0.2124 0.460946,0.0303 1.180946,0.2233 1.6,0.42891 0.856524,0.42025 2.165254,0.82976 4.66192,1.45878 2.04358,0.51486 2.761758,0.8384 5.064734,2.2817 0.970602,0.60829 1.84085,1.10598 1.933882,1.10598 0.09303,0 0.648902,0.43087 1.235266,0.95748 0.586366,0.52661 1.495742,1.17911 2.020838,1.45 0.525098,0.27089 1.673658,1.00663 2.552356,1.63499 0.8787,0.62836 2.249074,1.52539 3.04528,1.99341 0.796204,0.46803 1.509996,0.94083 1.586204,1.05083 0.219488,0.3166 -0.254804,0.7351 -0.680158,0.6001 -0.62732,-0.1991 -3.180646,-1.69236 -4.258402,-2.49042 -0.55,-0.40727 -1.481876,-0.99748 -2.070836,-1.31157 -0.58896,-0.31409 -1.45605,-0.91015 -1.926866,-1.32458 -0.470816,-0.41443 -1.33894,-0.99566 -1.929164,-1.29163 -0.973606,-0.48821 -2.386502,-1.40033 -3.49539,-2.25651 C 31.645232,992.24034 30.3455,991.79568 27,990.83709 c -1.045,-0.29943 -2.125,-0.65301 -2.4,-0.78575 -0.275,-0.13273 -1.13,-0.33707 -1.9,-0.45408 -4.759609,-0.7233 -4.690805,-0.71808 -6.154844,-0.46702 -1.664155,0.28537 -3.087545,0.93535 -3.263692,1.49034 -0.265209,0.8356 1.630019,1.98259 6.318536,3.82396 1.595,0.62642 3.08,1.21507 3.3,1.30811 1.109654,0.46927 1.823366,0.63087 4.4,0.99621 3.601472,0.51066 6.90757,1.14955 8.3,1.60395 0.605,0.19743 1.398978,0.41435 1.764394,0.48204 0.365418,0.0677 1.782772,0.57404 3.14968,1.12521 1.366906,0.55114 2.60648,1.00214 2.754608,1.00214 0.728648,0 1.2538,1.4334 0.61496,1.6786 -0.173996,0.067 -0.331496,0.1154 -0.35,0.108 -0.0185,-0.01 -0.393642,-0.129 -0.833642,-0.2704 z m 9.000722,-0.7649 -0.539612,-0.4641 1.302244,-2.59362 c 2.353048,-4.68643 3.027478,-6.68304 4.118846,-12.1936 1.20072,-6.06271 1.22577,-6.21907 1.42581,-8.9 0.559016,-7.49195 0.482718,-8.52856 -0.556198,-7.55666 -0.559728,0.52362 -1.651812,2.08577 -1.651812,2.3628 0,0.10235 -0.299452,0.66034 -0.66545,1.23998 -0.365996,0.57963 -0.819704,1.44747 -1.008238,1.92852 -0.188534,0.48105 -0.564082,1.29033 -0.83455,1.79841 -0.27047,0.50807 -0.491762,1.00141 -0.491762,1.09631 0,0.0949 -0.20765,0.59062 -0.461446,1.10159 -0.253796,0.51098 -0.62322,1.46905 -0.820942,2.12905 -0.197724,0.66 -0.713222,2.26492 -1.145554,3.56648 -1.082612,3.25929 -1.247342,4.64851 -1.260568,10.63075 -0.01042,4.71119 -0.04304,5.20329 -0.348864,5.26219 -0.19563,0.038 -0.489726,-0.1675 -0.7,-0.4885 -0.315318,-0.4814 -0.368494,-1.07654 -0.4076,-4.56225 -0.02474,-2.20477 -0.0503,-4.23367 -0.05681,-4.50867 -0.04721,-1.99512 1.932038,-9.24086 3.414502,-12.5 0.30021,-0.66 0.825162,-1.80774 1.166558,-2.55053 0.341398,-0.7428 0.620722,-1.4673 0.620722,-1.61 0,-0.14271 0.08071,-0.34497 0.179366,-0.44947 0.09865,-0.1045 0.562196,-0.91 1.0301,-1.79 0.995944,-1.87311 2.432898,-3.96691 2.990464,-4.35744 0.92948,-0.65103 2.168214,0.15165 2.60971,1.69105 0.36562,1.27484 -0.411778,13.16083 -0.913916,13.97331 -0.0529,0.0856 -0.175646,0.68155 -0.272774,1.32435 -0.340058,2.25051 -1.19673,6.20367 -1.621052,7.48042 -0.235488,0.70857 -0.782252,2.03604 -1.21503,2.94994 -0.432778,0.9139 -0.786868,1.70943 -0.786868,1.76786 0,0.29398 -1.999908,4.22143 -2.25917,4.43663 -0.246442,0.2045 -0.39757,0.1659 -0.840108,-0.2148 z"
         id="path3352"
         inkscape:connector-curvature="0" />
    </g>
    <path
       style="fill:#000000"
       d=""
       id="path3348"
       inkscape:connector-curvature="0" />
  </g>
</svg>
